<svg width="13" height="16" viewBox="0 0 13 16" fill="none" xmlns="http://www.w3.org/2000/svg">
<path d="M5.90909 9.21429H3.91477C3.87559 9.21429 3.83802 9.22934 3.81031 9.25613C3.78261 9.28292 3.76705 9.31925 3.76705 9.35714V10.2143C3.76705 10.2522 3.78261 10.2885 3.81031 10.3153C3.83802 10.3421 3.87559 10.3571 3.91477 10.3571H5.90909V12.2857C5.90909 12.3236 5.92465 12.3599 5.95236 12.3867C5.98006 12.4135 6.01764 12.4286 6.05682 12.4286H6.94318C6.98236 12.4286 7.01994 12.4135 7.04764 12.3867C7.07534 12.3599 7.09091 12.3236 7.09091 12.2857V10.3571H9.08523C9.12441 10.3571 9.16198 10.3421 9.18969 10.3153C9.21739 10.2885 9.23295 10.2522 9.23295 10.2143V9.35714C9.23295 9.31925 9.21739 9.28292 9.18969 9.25613C9.16198 9.22934 9.12441 9.21429 9.08523 9.21429H7.09091V7.28571C7.09091 7.24783 7.07534 7.21149 7.04764 7.1847C7.01994 7.15791 6.98236 7.14286 6.94318 7.14286H6.05682C6.01764 7.14286 5.98006 7.15791 5.95236 7.1847C5.92465 7.21149 5.90909 7.24783 5.90909 7.28571V9.21429ZM12.8264 4.0125C12.9372 4.11964 13 4.26429 13 4.41607V15.4286C13 15.7446 12.7359 16 12.4091 16H0.590909C0.264062 16 0 15.7446 0 15.4286V0.571429C0 0.255357 0.264062 0 0.590909 0H8.43338C8.59034 0 8.74176 0.0607143 8.85256 0.167857L12.8264 4.0125ZM11.6372 4.67857L8.16193 1.31786V4.67857H11.6372Z" fill="white"/>
</svg>
