<svg width="50" height="50" viewBox="0 0 50 50" fill="none" xmlns="http://www.w3.org/2000/svg">
<path fill-rule="evenodd" clip-rule="evenodd" d="M49.9673 8.06128C49.9673 12.5249 46.3696 16.1226 41.9062 16.1226C37.4424 16.1226 33.8447 12.5249 33.8447 8.06128C33.8447 3.59766 37.4424 0 41.9062 0C46.3696 0 49.9673 3.59766 49.9673 8.06128ZM30.6128 12.4248C29.6802 9.99316 29.5469 7.32812 30.2466 4.82983H11.0591L0 15.8892V46.7354C0 47.6013 0.333008 48.4009 0.932617 49.0005C1.53223 49.6001 2.36523 49.9331 3.19775 49.9331H32.2451C33.1113 49.9331 33.9106 49.6001 34.5103 49.0005C35.1099 48.4009 35.4429 47.5681 35.4429 46.7354V35.4429H22.5518C22.1187 35.4429 21.7188 35.2761 21.4189 34.9763C21.1191 34.6765 20.9526 34.2769 20.9526 33.8438C20.9526 33.4109 21.1191 33.011 21.4189 32.7112C21.7188 32.4114 22.1187 32.2449 22.5518 32.2449H35.4429V18.2876C33.2446 16.9219 31.5454 14.8564 30.6128 12.4248ZM12.8916 17.7212H3.23096V17.2217L12.3916 8.06104H12.8916V17.7212ZM40.8057 24.7502C40.5059 24.4839 40.1064 24.3506 39.7065 24.3506C39.4868 24.3506 39.2671 24.4109 39.0693 24.5098C38.9077 24.5906 38.7607 24.697 38.6406 24.8169C38.4883 24.969 38.3706 25.1384 38.2915 25.3206C38.2148 25.4973 38.1743 25.686 38.1743 25.8828C38.1743 26.2827 38.3076 26.6824 38.5742 26.9822L43.8037 32.2119H35.4761V35.4431H43.8374L38.5405 40.7397C38.4829 40.7859 38.4292 40.8398 38.3794 40.8994C38.3438 40.9419 38.3105 40.9871 38.2788 41.0339C38.2466 41.0818 38.2168 41.1316 38.189 41.1819C38.1724 41.2122 38.1562 41.2424 38.1411 41.2727C38.041 41.4724 37.9746 41.7056 37.9746 41.9055C37.9746 42.1387 37.9746 42.3386 38.0742 42.5718C38.1411 42.7717 38.2744 42.9714 38.4409 43.1382C38.6074 43.3047 38.7739 43.4045 39.0068 43.5044C39.207 43.571 39.4399 43.6377 39.6733 43.6045C39.9062 43.6045 40.1064 43.5378 40.3062 43.4377C40.5059 43.3379 40.6729 43.2046 40.8394 43.0381L49.9995 33.8777L40.8394 24.7837L40.8057 24.7502Z" fill="black"/>
</svg>
