<svg width="15" height="15" viewBox="0 0 15 15" fill="none" xmlns="http://www.w3.org/2000/svg">
<path d="M14.6896 6.99087L7.87425 0.155672C7.82518 0.106324 7.76689 0.0671738 7.70273 0.0404617C7.63856 0.0137495 7.56978 0 7.50031 0C7.43084 0 7.36206 0.0137495 7.29789 0.0404617C7.23373 0.0671738 7.17544 0.106324 7.12637 0.155672L0.311065 6.99087C0.112513 7.19015 0 7.46083 0 7.74314C0 8.32935 0.474871 8.80595 1.05895 8.80595H1.77704V13.6833C1.77704 13.9772 2.01365 14.2147 2.30652 14.2147H6.44136V10.4948H8.29452V14.2147H12.6941C12.987 14.2147 13.2236 13.9772 13.2236 13.6833V8.80595H13.9417C14.223 8.80595 14.4927 8.69469 14.6912 8.49375C15.1032 8.07859 15.1032 7.40603 14.6896 6.99087Z" fill="#2EC3B2"/>
</svg>
