<svg width="52" height="70" viewBox="0 0 52 70" fill="none" xmlns="http://www.w3.org/2000/svg">
<path d="M51.8568 25.9284C51.8568 11.6106 40.2462 0 25.9284 0C11.6106 0 0 11.6106 0 25.9284C0 34.0247 3.71607 41.2551 9.53399 46.0137V67.8982C9.53399 68.638 9.92073 69.319 10.5513 69.6973C10.8876 69.8991 11.2575 70 11.6358 70C11.9721 70 12.3084 69.9159 12.6111 69.7562L25.693 62.8873L38.7749 69.7562C39.4307 70.1009 40.2126 70.0757 40.8431 69.6973C41.4737 69.319 41.8604 68.638 41.8604 67.8982V46.3836C47.939 41.6418 51.8568 34.2433 51.8568 25.9368V25.9284ZM4.2037 25.9284C4.2037 13.9479 13.9479 4.2037 25.9284 4.2037C37.909 4.2037 47.6531 13.9479 47.6531 25.9284C47.6531 37.909 37.909 47.6531 25.9284 47.6531C13.9479 47.6531 4.2037 37.909 4.2037 25.9284ZM37.6567 64.4175L26.6767 58.65C26.0629 58.3305 25.3315 58.3305 24.7178 58.65L13.7377 64.4175V48.8134C17.3697 50.7555 21.5229 51.8568 25.9284 51.8568C30.3339 51.8568 34.134 50.8395 37.6567 49.0488V64.4175Z" fill="black"/>
<path d="M25.9286 42.0118C34.8152 42.0118 42.0119 34.8151 42.0119 25.9284C42.0119 17.0418 34.8068 9.84509 25.9286 9.84509C17.0504 9.84509 9.84521 17.0418 9.84521 25.9284C9.84521 34.8151 17.0419 42.0118 25.9286 42.0118ZM25.9286 14.0488C32.4779 14.0488 37.8082 19.3791 37.8082 25.9284C37.8082 32.4778 32.4779 37.8081 25.9286 37.8081C19.3792 37.8081 14.0489 32.4778 14.0489 25.9284C14.0489 19.3791 19.3792 14.0488 25.9286 14.0488Z" fill="black"/>
</svg>
