<svg width="73" height="50" viewBox="0 0 73 50" fill="none" xmlns="http://www.w3.org/2000/svg">
<path d="M36.3636 0C27 0 19.6364 7.11364 18.6068 16.1932C16.6265 16.5123 14.7692 17.3609 13.2317 18.6492C11.6942 19.9374 10.5336 21.6174 9.87273 23.5114C4.28182 25.1227 0 30.1091 0 36.3636C0 43.9182 6.08182 50 13.6364 50H59.0909C66.6455 50 72.7273 43.9182 72.7273 36.3636C72.7273 32.3636 70.7841 28.7818 67.9682 26.2773C67.4409 18.2909 61.0705 11.9182 53.0545 11.5045C50.3182 4.84773 44.0409 0 36.3636 0ZM36.3636 4.54545C42.6409 4.54545 47.6591 8.56818 49.4318 14.2727L49.9318 15.9091H52.2727C58.5341 15.9091 63.6364 21.0114 63.6364 27.2727V28.4091L64.5591 29.1205C65.6727 29.974 66.5776 31.0696 67.2053 32.3245C67.8329 33.5794 68.1669 34.9606 68.1818 36.3636C68.1818 41.5364 64.2636 45.4545 59.0909 45.4545H13.6364C8.46364 45.4545 4.54545 41.5364 4.54545 36.3636C4.54545 31.7727 7.84091 28.2091 12 27.4864L13.4932 27.2023L13.7773 25.7068C14.4591 22.6455 17.1727 20.4545 20.4545 20.4545H22.7273V18.1818C22.7273 10.5227 28.7045 4.54545 36.3636 4.54545ZM36.3636 17.2591L34.7273 18.8205L25.6364 27.9114L28.9091 31.1841L34.0909 25.9932V40.9091H38.6364V25.9932L43.8182 31.1795L47.0909 27.9068L38 18.8159L36.3636 17.2568V17.2591Z" fill="#CCCCCC"/>
</svg>
