<svg width="20" height="15" viewBox="0 0 20 15" fill="none" xmlns="http://www.w3.org/2000/svg">
<path d="M15.4545 6.4531C15.4455 6.4531 15.4391 6.45492 15.4318 6.45583C15.3213 4.9283 14.6217 3.50346 13.4805 2.48198C12.3394 1.46049 10.8461 0.922273 9.31572 0.980894C7.78533 1.03952 6.33756 1.69039 5.27793 2.79617C4.21831 3.90195 3.62972 5.37614 3.63636 6.90765C3.63636 7.38401 3.7 7.84401 3.80545 8.28947C3.74818 8.28492 3.69455 8.27129 3.63636 8.27129C1.62727 8.27129 0 9.89856 0 11.9076C0 13.0004 0.490909 13.9686 1.25455 14.6349H18.1573C18.7275 14.2152 19.1912 13.6675 19.5113 13.036C19.8313 12.4044 19.9987 11.7066 20 10.9986C20 8.48947 17.9636 6.4531 15.4545 6.4531ZM10.9091 10.0895V12.8167H9.09091V10.0895H6.36364L10 5.54401L13.6364 10.0895H10.9091Z" fill="white"/>
</svg>
