<svg width="25" height="25" viewBox="0 0 25 25" fill="none" xmlns="http://www.w3.org/2000/svg">
<path fill-rule="evenodd" clip-rule="evenodd" d="M12.5 24.3996C19.0722 24.3996 24.4 19.0718 24.4 12.4996C24.4 5.92742 19.0722 0.599609 12.5 0.599609C5.92782 0.599609 0.600006 5.92742 0.600006 12.4996C0.600006 19.0718 5.92782 24.3996 12.5 24.3996ZM23 12.4996C23 18.2986 18.299 22.9996 12.5 22.9996C6.70102 22.9996 2.00001 18.2986 2.00001 12.4996C2.00001 6.70062 6.70102 1.99961 12.5 1.99961C18.299 1.99961 23 6.70062 23 12.4996ZM6.85001 18.1572V19.3584C8.38632 20.6279 10.3566 21.3896 12.505 21.3896C14.6523 21.3896 16.6217 20.6279 18.1577 19.3604V18.1572C18.1577 17.3008 17.8173 16.4785 17.2114 15.873C16.6055 15.2666 15.7838 14.9268 14.9269 14.9268H10.0807C9.22391 14.9268 8.40216 15.2666 7.79626 15.873C7.1904 16.4785 6.85001 17.3008 6.85001 18.1572ZM12.5038 6.84961C13.3607 6.84961 14.1824 7.19043 14.7883 7.7959C15.3942 8.40137 15.7346 9.22363 15.7346 10.0801C15.7346 10.9375 15.3942 11.7588 14.7883 12.3652C14.1824 12.9707 13.3607 13.3115 12.5038 13.3115C11.647 13.3115 10.8253 12.9707 10.2194 12.3652C9.61346 11.7588 9.27307 10.9375 9.27307 10.0801C9.27307 9.22363 9.61346 8.40137 10.2194 7.7959C10.8253 7.19043 11.647 6.84961 12.5038 6.84961Z" fill="#2EC3B2"/>
</svg>
